<svg width="420" height="420" viewBox="0 0 420 420" xmlns="http://www.w3.org/2000/svg">
  <defs>
    <radialGradient id="spaceGradient" cx="50%" cy="40%" r="70%">
      <stop offset="0%" stop-color="#1f2937"/>
      <stop offset="45%" stop-color="#020617"/>
      <stop offset="100%" stop-color="#000000"/>
    </radialGradient>
  </defs>

  <rect x="0" y="0" width="420" height="420" fill="url(#spaceGradient)" rx="24" />

  <g fill="#e5e7eb" opacity="0.7">
    <circle cx="60" cy="80" r="1.2"/>
    <circle cx="120" cy="40" r="1.5"/>
    <circle cx="340" cy="70" r="1.4"/>
    <circle cx="380" cy="140" r="1.1"/>
    <circle cx="300" cy="40" r="1.3"/>
    <circle cx="80" cy="320" r="1.2"/>
    <circle cx="360" cy="300" r="1.6"/>
    <circle cx="210" cy="380" r="1.2"/>
  </g>

  <g transform="translate(210,210)">
    <circle r="45" fill="#0f172a" stroke="#38bdf8" stroke-width="2.5"/>
    <text x="0" y="-4" text-anchor="middle" font-size="11" fill="#e5e7eb" font-family="system-ui">
      Full-Stack
    </text>
    <text x="0" y="12" text-anchor="middle" font-size="9" fill="#9ca3af" font-family="system-ui">
      Dev
    </text>
  </g>

  <g transform="translate(210,210)" stroke="#1e293b" stroke-width="1" stroke-dasharray="4 6">
    <circle r="85" fill="none"/>
    <circle r="125" fill="none"/>
    <circle r="165" fill="none"/>
  </g>

  <!-- 1ª órbita -->
  <g transform="translate(210,210)">
    <g>
      <animateTransform attributeName="transform" type="rotate" from="0" to="360" dur="40s" repeatCount="indefinite"/>
      <g transform="translate(85,0)">
        <circle r="13" fill="#22c55e"/>
        <text x="0" y="3" text-anchor="middle" font-size="8" fill="#0b1120">React</text>
      </g>
      <g transform="rotate(120) translate(85,0)">
        <circle r="13" fill="#3b82f6"/>
        <text x="0" y="3" text-anchor="middle" font-size="8" fill="#eff6ff">TS</text>
      </g>
      <g transform="rotate(240) translate(85,0)">
        <circle r="13" fill="#ef4444"/>
        <text x="0" y="3" text-anchor="middle" font-size="7.5" fill="#fee2e2">Rails</text>
      </g>
    </g>
  </g>

  <!-- 2ª órbita -->
  <g transform="translate(210,210)">
    <g>
      <animateTransform attributeName="transform" type="rotate" from="360" to="0" dur="55s" repeatCount="indefinite"/>
      <g transform="translate(0,125)">
        <circle r="12" fill="#16a34a"/>
        <text x="0" y="3" text-anchor="middle" font-size="7" fill="#ecfdf5">Node</text>
      </g>
      <g transform="rotate(72) translate(0,125)">
        <circle r="12" fill="#0ea5e9"/>
        <text x="0" y="3" text-anchor="middle" font-size="7" fill="#e0f2fe">Postgres</text>
      </g>
      <g transform="rotate(144) translate(0,125)">
        <circle r="12" fill="#22d3ee"/>
        <text x="0" y="3" text-anchor="middle" font-size="7" fill="#0f172a">Tailwind</text>
      </g>
      <g transform="rotate(216) translate(0,125)">
        <circle r="12" fill="#f97316"/>
        <text x="0" y="3" text-anchor="middle" font-size="7" fill="#0b1120">HTML/CSS</text>
      </g>
      <g transform="rotate(288) translate(0,125)">
        <circle r="12" fill="#facc15"/>
        <text x="0" y="3" text-anchor="middle" font-size="7" fill="#0b1120">Git</text>
      </g>
    </g>
  </g>

  <!-- 3ª órbita -->
  <g transform="translate(210,210)">
    <g opacity="0.95">
      <animateTransform attributeName="transform" type="rotate" from="0" to="360" dur="80s" repeatCount="indefinite"/>
      <g transform="translate(165,0)">
        <circle r="10" fill="#a855f7"/>
        <text x="0" y="3" text-anchor="middle" font-size="6.8" fill="#fdf2ff">Tests</text>
      </g>
      <g transform="rotate(90) translate(165,0)">
        <circle r="10" fill="#38bdf8"/>
        <text x="0" y="3" text-anchor="middle" font-size="6.8" fill="#0f172a">Docker</text>
      </g>
      <g transform="rotate(180) translate(165,0)">
        <circle r="10" fill="#f97316"/>
        <text x="0" y="3" text-anchor="middle" font-size="6.5" fill="#0f172a">CI/CD</text>
      </g>
      <g transform="rotate(270) translate(165,0)">
        <circle r="10" fill="#22c55e"/>
        <text x="0" y="3" text-anchor="middle" font-size="6.5" fill="#022c22">A11y</text>
      </g>
    </g>
  </g>
</svg>
